<?xml version="1.0" standalone="no"?><!-- Generator: Gravit.io --><svg xmlns="http://www.w3.org/2000/svg" xmlns:xlink="http://www.w3.org/1999/xlink" style="isolation:isolate" viewBox="373 444.76 1520.64 168.74" width="1520.64" height="168.74"><path d=" M 881.8 610.84 L 830.92 553.48 C 862.84 547 873.4 523.72 873.4 500.68 C 873.4 471.64 852.52 445.24 812.92 445 C 786.28 445 759.64 444.76 733 444.76 L 733 613 L 764.68 613 L 764.68 556.84 L 795.16 556.84 L 844.12 613 L 881.8 613 L 881.8 610.84 Z  M 812.92 474.52 C 832.84 474.52 841.72 487.96 841.72 501.4 C 841.72 514.84 833.08 528.28 812.92 528.28 L 764.68 528.28 L 764.68 474.52 L 812.92 474.52 Z  M 1020.04 581.8 L 925.72 581.8 L 925.72 543.88 L 1016.68 543.88 L 1016.68 514.36 L 925.72 514.36 L 925.72 475.72 L 1020.04 475.72 L 1020.04 445 L 894.28 445 C 894.28 500.92 894.28 557.08 894.28 613 L 1020.04 613 L 1020.04 581.8 Z  M 1154.92 549.16 L 1072.6 445 L 1046.92 445 L 1046.92 613 L 1078.6 613 L 1078.6 499.72 L 1166.92 613.24 L 1166.92 613 L 1186.6 613 L 1186.6 444.76 L 1154.92 444.76 L 1154.92 549.16 Z  M 1349.08 613 L 1383.64 613 L 1308.28 445 L 1273.72 445 L 1198.36 613 L 1232.68 613 L 1247.08 581.32 L 1334.92 581.32 L 1349.08 613 Z  M 1322.2 551.8 L 1259.8 551.8 L 1291 480.28 L 1322.2 551.8 Z  M 1395.4 445 L 1395.4 613 L 1513.48 613 L 1513.48 583.72 L 1427.08 583.72 L 1427.08 445 L 1395.4 445 Z  M 1567.48 613 L 1567.48 445 L 1536.04 445 L 1536.04 613 L 1567.48 613 Z  M 1707.64 549.16 L 1625.32 445 L 1599.64 445 L 1599.64 613 L 1631.32 613 L 1631.32 499.72 L 1719.64 613.24 L 1719.64 613 L 1739.32 613 L 1739.32 444.76 L 1707.64 444.76 L 1707.64 549.16 Z  M 1893.64 581.8 L 1799.32 581.8 L 1799.32 543.88 L 1890.28 543.88 L 1890.28 514.36 L 1799.32 514.36 L 1799.32 475.72 L 1893.64 475.72 L 1893.64 445 L 1767.88 445 C 1767.88 500.92 1767.88 557.08 1767.88 613 L 1893.64 613 L 1893.64 581.8 Z " fill-rule="evenodd" fill="rgb(255,255,255)"/><g style="isolation:isolate" id="Layer 0"/><g style="isolation:isolate" id="Layer 1"><path d=" M 518 445 L 531.164 484.492 L 625.945 484.492 C 636.25 484.492 653.25 488 661 505 Q 666.695 519.24 665.438 534.516 Q 664.094 554.342 656.195 562.24 Q 644.704 574.911 631.211 575.24 Q 619.038 575.537 562.758 575.24 L 578.555 613.5 L 639.109 613.5 C 660.866 612.074 679.918 601.323 691.766 584.539 Q 704.93 562.291 704.93 534.516 C 704.93 506.74 699.945 487.24 683.867 470.24 Q 663.5 445 631.211 445 Q 601.592 445 518 445 Z " fill="rgb(202,2,2)"/><path d=" M 373 613.26 L 433.555 444.76 L 488.844 444.76 L 549.398 613.26 L 502.008 613.26 L 459.883 497.416 L 420.391 613.26" fill="rgb(202,2,2)"/></g></svg>